<svg version="1.1" id="Layer_1" xmlns="http://www.w3.org/2000/svg" xmlns:xlink="http://www.w3.org/1999/xlink" x="0px" y="0px"
	 width="100%" viewBox="0 0 236 236" enable-background="new 0 0 236 236" xml:space="preserve">
<path fill="#FEFFFE" opacity="1.000000" stroke="none" 
	d="
M117.000000,237.000000 
	C78.000000,237.000000 39.500004,237.000000 1.000005,237.000000 
	C1.000003,158.333344 1.000003,79.666679 1.000002,1.000016 
	C79.666656,1.000010 158.333313,1.000010 236.999969,1.000005 
	C236.999985,79.666649 236.999985,158.333298 237.000000,236.999969 
	C197.166672,237.000000 157.333328,237.000000 117.000000,237.000000 
M118.995331,118.377525 
	C118.988991,118.917694 118.982658,119.457855 118.702538,120.738983 
	C118.559929,122.834641 118.417313,124.930290 118.110931,127.670334 
	C118.171730,128.105316 118.232536,128.540314 118.112915,129.901291 
	C118.163452,140.283325 118.213989,150.665359 118.070137,161.908188 
	C118.131119,164.256104 118.192101,166.604034 118.095795,169.618896 
	C118.144287,170.070999 118.192787,170.523117 118.054108,171.753586 
	C119.121208,172.748703 120.062645,174.359436 121.282066,174.608353 
	C123.681198,175.098068 125.071907,173.818802 124.715271,170.537369 
	C124.633026,169.678040 124.550781,168.818726 124.706100,167.058411 
	C124.677032,153.378983 124.647964,139.699554 124.868607,125.222328 
	C126.546700,118.803970 128.224792,112.385620 130.295990,105.453705 
	C130.896606,104.321831 131.497238,103.189957 132.015320,102.013710 
	C132.015320,102.013710 132.063812,102.093910 132.605042,101.703598 
	C134.457001,99.159065 136.308975,96.614532 138.757187,93.778343 
	C145.617203,89.043144 152.477219,84.307945 160.346939,78.875786 
	C157.894287,78.135315 155.000031,76.168556 153.050613,76.861145 
	C144.355911,79.950203 136.735870,84.917908 130.653809,92.630836 
	C130.371872,93.103577 130.089935,93.576317 129.322708,94.425835 
	C129.245178,94.615387 129.167664,94.804932 128.759369,95.319672 
	C128.759369,95.319672 128.674622,95.775658 128.826706,95.908508 
	C128.826706,95.908508 128.727737,95.732483 128.153229,96.061470 
	C126.097061,100.039131 124.040894,104.016800 121.641724,108.452126 
	C121.487579,108.988518 121.333435,109.524902 120.818893,110.774818 
	C120.289719,113.145828 119.760551,115.516846 118.995331,118.377525 
M87.297974,165.600800 
	C88.862701,166.410080 90.427437,167.219345 92.185043,168.243637 
	C92.185043,168.243637 92.472496,168.272049 92.904572,168.836853 
	C96.949638,170.391464 100.994713,171.946091 105.598099,173.715286 
	C105.598099,156.751312 105.629410,141.021286 105.535828,125.292007 
	C105.528709,124.095634 104.636177,122.904533 104.182915,121.337662 
	C104.182915,121.337662 104.036240,120.993233 104.163712,120.383949 
	C103.723358,119.500381 103.282997,118.616814 102.845291,117.333755 
	C102.845291,117.333755 102.593636,117.023483 102.453918,116.428520 
	C100.310265,113.942299 98.166618,111.456070 96.000465,109.000610 
	C96.000465,109.000610 96.029564,108.975258 95.714401,108.367485 
	C93.101112,107.000710 90.614403,105.250252 87.850983,104.338554 
	C79.302002,101.518150 79.261337,101.642174 79.179893,92.376427 
	C79.178452,92.212349 79.146370,92.048531 80.066765,91.618462 
	C80.370705,91.503220 80.674652,91.387985 81.753021,91.636360 
	C86.787399,92.863914 91.821777,94.091461 97.267395,95.838814 
	C101.450447,98.714066 105.633499,101.589317 110.150696,104.694244 
	C116.524307,88.683685 127.206551,76.436058 143.341446,67.819237 
	C140.316345,66.646393 138.273544,65.700027 136.140213,65.051514 
	C117.577637,59.408646 100.377052,62.536892 83.581116,73.098877 
	C78.185883,74.507004 73.944992,77.103516 72.872116,83.867119 
	C71.808296,85.292587 70.454849,86.584854 69.727928,88.165283 
	C65.216545,97.973579 61.500481,107.725502 61.700790,119.082176 
	C62.007656,136.479797 68.634064,150.177490 81.995308,161.763702 
	C83.653389,162.858871 85.311470,163.954041 86.991577,164.995453 
	C86.991577,164.995453 86.950012,165.036728 87.297974,165.600800 
M145.481934,104.379463 
	C140.872269,109.993256 138.307877,116.470863 136.816071,124.642830 
	C145.333633,121.179237 152.477341,115.872398 161.880768,116.343430 
	C161.880768,118.214188 161.680283,119.875717 161.918762,121.471642 
	C162.603836,126.056229 161.115585,128.179840 156.159531,128.996964 
	C148.234543,130.303604 142.837509,135.569214 139.505203,142.730301 
	C135.259003,151.855362 137.381912,161.463608 137.151123,171.074844 
	C149.526291,168.232025 162.290131,157.490463 169.396133,144.278503 
	C171.124268,139.172745 172.852417,134.066971 174.845688,128.334427 
	C174.833496,127.883034 174.821320,127.431633 175.094727,126.207375 
	C176.890640,113.939751 174.423050,102.513077 168.327621,90.597412 
	C163.462189,92.823334 159.057159,94.838615 154.288300,96.874672 
	C154.288300,96.874672 154.013596,97.114113 153.347412,97.182022 
	C150.914001,99.459862 148.480576,101.737709 145.481934,104.379463 
z"/>
<path fill="#559245" opacity="1.000000" stroke="none" 
	d="
M81.680740,161.179276 
	C68.634064,150.177490 62.007656,136.479797 61.700790,119.082176 
	C61.500481,107.725502 65.216545,97.973579 69.727928,88.165283 
	C70.454849,86.584854 71.808296,85.292587 73.344826,83.486542 
	C77.337440,79.808723 80.857346,76.511490 84.377258,73.214256 
	C100.377052,62.536892 117.577637,59.408646 136.140213,65.051514 
	C138.273544,65.700027 140.316345,66.646393 143.341446,67.819237 
	C127.206551,76.436058 116.524307,88.683685 110.150696,104.694244 
	C105.633499,101.589317 101.450447,98.714066 97.061081,95.173569 
	C96.158684,93.718033 95.581978,92.421661 94.745995,92.224464 
	C90.992905,91.339157 87.177422,90.685150 83.355927,90.152237 
	C82.629692,90.050964 81.774368,90.875420 80.978607,91.272743 
	C80.674652,91.387985 80.370705,91.503220 79.321609,91.895782 
	C75.405556,94.695885 75.350418,98.125069 77.304115,100.934479 
	C78.634018,102.846878 81.442116,103.813766 83.711334,104.962189 
	C85.283112,105.757645 87.056282,106.162766 88.751350,106.705170 
	C91.171715,107.479683 93.602966,108.220215 96.029564,108.975258 
	C96.029564,108.975258 96.000465,109.000610 96.006638,109.357445 
	C97.570648,112.723099 97.892380,116.844833 102.593636,117.023483 
	C102.593636,117.023483 102.845291,117.333755 102.598007,117.849365 
	C102.912567,119.241058 103.474403,120.117142 104.036240,120.993233 
	C104.036240,120.993233 104.182915,121.337662 104.121620,122.011887 
	C104.054153,136.917908 104.062813,151.149734 104.034592,165.381485 
	C104.023109,171.176498 103.091133,171.764221 97.595657,169.776413 
	C95.925133,169.172150 94.182243,168.767899 92.472496,168.272049 
	C92.472496,168.272049 92.185043,168.243637 92.033485,167.785446 
	C90.237961,166.563736 88.593987,165.800232 86.950012,165.036728 
	C86.950012,165.036728 86.991577,164.995453 86.947769,164.663574 
	C85.162888,163.280899 83.421814,162.230087 81.680740,161.179276 
z"/>
<path fill="#579147" opacity="1.000000" stroke="none" 
	d="
M174.809143,126.980240 
	C174.821320,127.431633 174.833496,127.883034 174.391693,128.755615 
	C172.334854,134.387131 167.742172,138.633102 168.917938,144.739685 
	C162.290131,157.490463 149.526291,168.232025 137.151123,171.074844 
	C137.381912,161.463608 135.259003,151.855362 139.505203,142.730301 
	C142.837509,135.569214 148.234543,130.303604 156.159531,128.996964 
	C161.115585,128.179840 162.603836,126.056229 161.918762,121.471642 
	C161.680283,119.875717 161.880768,118.214188 161.880768,116.343430 
	C152.477341,115.872398 145.333633,121.179237 136.816071,124.642830 
	C138.307877,116.470863 140.872269,109.993256 146.038116,104.295151 
	C149.976135,102.795311 153.400543,101.424286 154.013596,97.114113 
	C154.013596,97.114113 154.288300,96.874672 154.879852,96.905518 
	C157.652618,96.238968 159.836853,95.550835 162.014465,94.842331 
	C167.028000,93.211128 169.235565,94.047287 170.775482,98.876892 
	C171.864975,102.293907 172.490189,105.896690 172.962479,109.464233 
	C173.732681,115.282425 174.208878,121.139542 174.809143,126.980240 
z"/>
<path fill="#5E904E" opacity="1.000000" stroke="none" 
	d="
M131.042450,92.425430 
	C136.735870,84.917908 144.355911,79.950203 153.050613,76.861145 
	C155.000031,76.168556 157.894287,78.135315 160.346939,78.875786 
	C152.477219,84.307945 145.617203,89.043144 138.083466,93.908073 
	C135.601364,94.717209 133.792969,95.396614 131.727631,95.959366 
	C130.980911,95.566330 130.491135,95.289963 129.773621,95.005463 
	C129.545883,94.997322 129.090134,94.994484 129.090134,94.994484 
	C129.167664,94.804932 129.245178,94.615387 129.771606,94.158401 
	C130.494492,93.402451 130.768463,92.913940 131.042450,92.425430 
z"/>
<path fill="#689E5C" opacity="1.000000" stroke="none" 
	d="
M130.001373,95.013596 
	C130.491135,95.289963 130.980911,95.566330 131.732239,96.384857 
	C132.017151,98.649323 132.040482,100.371613 132.063812,102.093910 
	C132.063812,102.093910 132.015320,102.013710 131.707001,102.046738 
	C130.900070,103.375595 130.401474,104.671432 129.902893,105.967270 
	C128.224792,112.385620 126.546700,118.803970 124.501732,125.644661 
	C123.763718,126.337669 123.392578,126.608337 122.651268,126.908676 
	C121.538528,126.942650 120.795959,126.946968 120.045105,126.556137 
	C120.357376,124.095497 120.677940,122.030014 121.001816,119.643456 
	C121.003510,118.893654 121.001892,118.464920 121.009598,117.633911 
	C121.072380,114.841522 121.125839,112.451408 121.179291,110.061295 
	C121.333435,109.524902 121.487579,108.988518 122.160690,108.176414 
	C124.695679,103.844627 126.711708,99.788551 128.727737,95.732483 
	C128.727737,95.732483 128.826706,95.908508 129.028244,95.831833 
	C129.486984,95.507973 129.744171,95.260788 130.001373,95.013596 
z"/>
<path fill="#6E9663" opacity="1.000000" stroke="none" 
	d="
M92.688538,168.554443 
	C94.182243,168.767899 95.925133,169.172150 97.595657,169.776413 
	C103.091133,171.764221 104.023109,171.176498 104.034592,165.381485 
	C104.062813,151.149734 104.054153,136.917908 104.107773,122.198547 
	C104.636177,122.904533 105.528709,124.095634 105.535828,125.292007 
	C105.629410,141.021286 105.598099,156.751312 105.598099,173.715286 
	C100.994713,171.946091 96.949638,170.391464 92.688538,168.554443 
z"/>
<path fill="#55943C" opacity="1.000000" stroke="none" 
	d="
M120.053391,126.951279 
	C120.795959,126.946968 121.538528,126.942650 122.650810,127.390793 
	C123.019386,138.898148 123.018242,149.953033 122.639908,161.004913 
	C121.509361,161.001465 120.756004,161.001038 120.000221,160.531921 
	C119.996582,151.241745 120.076706,142.418823 119.917679,133.600189 
	C119.889709,132.049301 118.860283,130.516464 118.293335,128.975296 
	C118.232536,128.540314 118.171730,128.105316 118.489212,127.345032 
	C119.262787,126.996910 119.658089,126.974098 120.053391,126.951279 
z"/>
<path fill="#66905B" opacity="1.000000" stroke="none" 
	d="
M174.951935,126.593811 
	C174.208878,121.139542 173.732681,115.282425 172.962479,109.464233 
	C172.490189,105.896690 171.864975,102.293907 170.775482,98.876892 
	C169.235565,94.047287 167.028000,93.211128 162.014465,94.842331 
	C159.836853,95.550835 157.652618,96.238968 155.061768,96.895126 
	C159.057159,94.838615 163.462189,92.823334 168.327621,90.597412 
	C174.423050,102.513077 176.890640,113.939751 174.951935,126.593811 
z"/>
<path fill="#64905B" opacity="1.000000" stroke="none" 
	d="
M123.017105,161.007935 
	C123.018242,149.953033 123.019386,138.898148 123.020981,127.361130 
	C123.392578,126.608337 123.763718,126.337669 124.376877,126.043556 
	C124.647964,139.699554 124.677032,153.378983 124.364174,167.520569 
	C123.726379,168.003021 123.430290,168.019379 123.101990,167.593475 
	C123.052368,165.106110 123.034737,163.057022 123.017105,161.007935 
z"/>
<path fill="#659359" opacity="1.000000" stroke="none" 
	d="
M95.871979,108.671371 
	C93.602966,108.220215 91.171715,107.479683 88.751350,106.705170 
	C87.056282,106.162766 85.283112,105.757645 83.711334,104.962189 
	C81.442116,103.813766 78.634018,102.846878 77.304115,100.934479 
	C75.350418,98.125069 75.405556,94.695885 78.852524,92.028847 
	C79.146370,92.048531 79.178452,92.212349 79.179893,92.376427 
	C79.261337,101.642174 79.302002,101.518150 87.850983,104.338554 
	C90.614403,105.250252 93.101112,107.000710 95.871979,108.671371 
z"/>
<path fill="#5E8B4D" opacity="1.000000" stroke="none" 
	d="
M118.203125,129.438293 
	C118.860283,130.516464 119.889709,132.049301 119.917679,133.600189 
	C120.076706,142.418823 119.996582,151.241745 119.998665,160.896362 
	C119.682144,162.826782 119.364746,163.924057 119.033508,164.669067 
	C118.767944,163.226990 118.516235,162.137192 118.264526,161.047394 
	C118.213989,150.665359 118.163452,140.283325 118.203125,129.438293 
z"/>
<path fill="#559344" opacity="1.000000" stroke="none" 
	d="
M119.047356,165.021332 
	C119.364746,163.924057 119.682144,162.826782 120.001091,161.365051 
	C120.756004,161.001038 121.509361,161.001465 122.639908,161.004913 
	C123.034737,163.057022 123.052368,165.106110 123.069229,167.960144 
	C123.090775,169.501175 123.113098,170.237228 122.916191,171.225983 
	C121.211739,171.310852 119.726517,171.143036 118.241287,170.975220 
	C118.192787,170.523117 118.144287,170.070999 118.401985,169.029678 
	C118.821236,167.300751 118.934296,166.161041 119.047356,165.021332 
z"/>
<path fill="#E1F2DC" opacity="1.000000" stroke="none" 
	d="
M83.979187,73.156570 
	C80.857346,76.511490 77.337440,79.808723 73.479706,83.172554 
	C73.944992,77.103516 78.185883,74.507004 83.979187,73.156570 
z"/>
<path fill="#659359" opacity="1.000000" stroke="none" 
	d="
M81.365814,91.454552 
	C81.774368,90.875420 82.629692,90.050964 83.355927,90.152237 
	C87.177422,90.685150 90.992905,91.339157 94.745995,92.224464 
	C95.581978,92.421661 96.158684,93.718033 96.855461,94.913666 
	C91.821777,94.091461 86.787399,92.863914 81.365814,91.454552 
z"/>
<path fill="#66905B" opacity="1.000000" stroke="none" 
	d="
M169.157043,144.509094 
	C167.742172,138.633102 172.334854,134.387131 174.259140,129.069000 
	C172.852417,134.066971 171.124268,139.172745 169.157043,144.509094 
z"/>
<path fill="#65945C" opacity="1.000000" stroke="none" 
	d="
M128.440491,95.896973 
	C126.711708,99.788551 124.695679,103.844627 122.332191,107.947586 
	C124.040894,104.016800 126.097061,100.039131 128.440491,95.896973 
z"/>
<path fill="#65945C" opacity="1.000000" stroke="none" 
	d="
M132.334442,101.898758 
	C132.040482,100.371613 132.017151,98.649323 131.989197,96.501526 
	C133.792969,95.396614 135.601364,94.717209 137.785339,94.053894 
	C136.308975,96.614532 134.457001,99.159065 132.334442,101.898758 
z"/>
<path fill="#659359" opacity="1.000000" stroke="none" 
	d="
M102.523773,116.725998 
	C97.892380,116.844833 97.570648,112.723099 96.017899,109.342064 
	C98.166618,111.456070 100.310265,113.942299 102.523773,116.725998 
z"/>
<path fill="#66905B" opacity="1.000000" stroke="none" 
	d="
M153.680511,97.148071 
	C153.400543,101.424286 149.976135,102.795311 146.320724,104.113190 
	C148.480576,101.737709 150.914001,99.459862 153.680511,97.148071 
z"/>
<path fill="#64905B" opacity="1.000000" stroke="none" 
	d="
M118.147697,171.364410 
	C119.726517,171.143036 121.211739,171.310852 123.233612,171.260605 
	C123.982796,171.067947 124.195335,171.093369 124.407867,171.118774 
	C125.071907,173.818802 123.681198,175.098068 121.282066,174.608353 
	C120.062645,174.359436 119.121208,172.748703 118.147697,171.364410 
z"/>
<path fill="#5E8B4D" opacity="1.000000" stroke="none" 
	d="
M120.045105,126.556137 
	C119.658089,126.974098 119.262787,126.996910 118.571091,127.022835 
	C118.417313,124.930290 118.559929,122.834641 119.176559,120.366379 
	C120.099892,119.984016 120.549202,119.974274 120.998505,119.964523 
	C120.677940,122.030014 120.357376,124.095497 120.045105,126.556137 
z"/>
<path fill="#6E9663" opacity="1.000000" stroke="none" 
	d="
M81.838028,161.471497 
	C83.421814,162.230087 85.162888,163.280899 86.936752,164.690460 
	C85.311470,163.954041 83.653389,162.858871 81.838028,161.471497 
z"/>
<path fill="#5E8B4D" opacity="1.000000" stroke="none" 
	d="
M120.999100,110.418060 
	C121.125839,112.451408 121.072380,114.841522 120.567871,117.590454 
	C119.821678,117.928802 119.526527,117.908325 119.231384,117.887856 
	C119.760551,115.516846 120.289719,113.145828 120.999100,110.418060 
z"/>
<path fill="#65945C" opacity="1.000000" stroke="none" 
	d="
M130.099426,105.710487 
	C130.401474,104.671432 130.900070,103.375595 131.748260,102.068924 
	C131.497238,103.189957 130.896606,104.321831 130.099426,105.710487 
z"/>
<path fill="#6E9663" opacity="1.000000" stroke="none" 
	d="
M87.123993,165.318756 
	C88.593987,165.800232 90.237961,166.563736 91.937050,167.677933 
	C90.427437,167.219345 88.862701,166.410080 87.123993,165.318756 
z"/>
<path fill="#64905B" opacity="1.000000" stroke="none" 
	d="
M119.033508,164.669067 
	C118.934296,166.161041 118.821236,167.300751 118.480629,168.696198 
	C118.192101,166.604034 118.131119,164.256104 118.167336,161.477783 
	C118.516235,162.137192 118.767944,163.226990 119.033508,164.669067 
z"/>
<path fill="#689E5C" opacity="1.000000" stroke="none" 
	d="
M124.561569,170.828064 
	C124.195335,171.093369 123.982796,171.067947 123.452835,171.007904 
	C123.113098,170.237228 123.090775,169.501175 123.101219,168.398438 
	C123.430290,168.019379 123.726379,168.003021 124.245392,167.971054 
	C124.550781,168.818726 124.633026,169.678040 124.561569,170.828064 
z"/>
<path fill="#659359" opacity="1.000000" stroke="none" 
	d="
M104.099976,120.688591 
	C103.474403,120.117142 102.912567,119.241058 102.596687,118.049103 
	C103.282997,118.616814 103.723358,119.500381 104.099976,120.688591 
z"/>
<path fill="#64905B" opacity="1.000000" stroke="none" 
	d="
M119.113358,118.132690 
	C119.526527,117.908325 119.821678,117.928802 120.558548,117.992729 
	C121.001892,118.464920 121.003510,118.893654 121.001816,119.643463 
	C120.549202,119.974274 120.099892,119.984016 119.313461,119.995895 
	C118.982658,119.457855 118.988991,118.917694 119.113358,118.132690 
z"/>
<path fill="#689E5C" opacity="1.000000" stroke="none" 
	d="
M130.848114,92.528130 
	C130.768463,92.913940 130.494492,93.402451 130.014252,93.970009 
	C130.089935,93.576317 130.371872,93.103577 130.848114,92.528130 
z"/>
<path fill="#65945C" opacity="1.000000" stroke="none" 
	d="
M129.773621,95.005463 
	C129.744171,95.260788 129.486984,95.507973 128.952209,95.765411 
	C128.674622,95.775658 128.759369,95.319672 128.924744,95.157074 
	C129.090134,94.994484 129.545883,94.997322 129.773621,95.005463 
z"/>
</svg>